<svg width="70" height="82" fill="none" xmlns="http://www.w3.org/2000/svg"><path d="M69.225 7.079v73.59H17.37v-1.86a1.916 1.916 0 1 0-3.832 0v1.86H1.327V27.842c0-.506.41-.916.915-.916H14.54V14.629c0-.506.41-.916.915-.916h4.748V7.08c0-.506.41-.916.915-.916h6.635V1.416a.916.916 0 1 1 1.831 0v4.747h6.635c.506 0 .916.41.916.916v6.634h3.832V7.08c0-.506.41-.916.915-.916H68.31c.506 0 .916.41.916.916ZM36 77.5V51.073M42 77.427V51M48 77.427V51" stroke="#05C2DF" stroke-linecap="round"/><path d="M50.323 16.517a1.166 1.166 0 1 1-2.332 0V14.63a1.166 1.166 0 1 1 2.332 0v1.887ZM55.986 16.517a1.166 1.166 0 1 1-2.332 0V14.63a1.166 1.166 0 1 1 2.332 0v1.887ZM61.65 16.517a1.166 1.166 0 1 1-2.332 0V14.63a1.166 1.166 0 1 1 2.332 0v1.887ZM50.323 25.955a1.166 1.166 0 1 1-2.332 0v-1.888a1.166 1.166 0 1 1 2.332 0v1.888ZM55.986 25.955a1.166 1.166 0 1 1-2.332 0v-1.888a1.166 1.166 0 1 1 2.332 0v1.888ZM61.65 25.955a1.166 1.166 0 1 1-2.332 0v-1.888a1.166 1.166 0 1 1 2.332 0v1.888ZM50.323 35.393a1.166 1.166 0 1 1-2.332 0v-1.888a1.166 1.166 0 1 1 2.332 0v1.888ZM55.986 35.393a1.166 1.166 0 1 1-2.332 0v-1.888a1.166 1.166 0 1 1 2.332 0v1.888ZM61.65 35.393a1.166 1.166 0 1 1-2.332 0v-1.888a1.166 1.166 0 1 1 2.332 0v1.888ZM10.683 39.169a1.166 1.166 0 1 1-2.331 0V37.28a1.166 1.166 0 1 1 2.331 0v1.888ZM16.346 39.169a1.166 1.166 0 1 1-2.331 0V37.28a1.166 1.166 0 1 1 2.331 0v1.888ZM22.008 39.169a1.165 1.165 0 1 1-2.331 0V37.28a1.166 1.166 0 1 1 2.331 0v1.888ZM10.683 48.607a1.166 1.166 0 1 1-2.331 0V46.72a1.166 1.166 0 1 1 2.331 0v1.888ZM16.346 48.607a1.166 1.166 0 1 1-2.331 0V46.72a1.166 1.166 0 1 1 2.331 0v1.888ZM22.008 48.607a1.165 1.165 0 1 1-2.331 0V46.72a1.166 1.166 0 1 1 2.331 0v1.888ZM10.683 58.045a1.166 1.166 0 1 1-2.331 0v-1.888a1.166 1.166 0 1 1 2.331 0v1.888ZM16.346 58.045a1.166 1.166 0 1 1-2.331 0v-1.888a1.166 1.166 0 1 1 2.331 0v1.888ZM22.008 58.045a1.165 1.165 0 1 1-2.331 0v-1.888a1.166 1.166 0 1 1 2.331 0v1.888ZM10.683 67.483a1.166 1.166 0 1 1-2.331 0v-1.888a1.166 1.166 0 1 1 2.331 0v1.888ZM16.346 67.483a1.166 1.166 0 1 1-2.331 0v-1.888a1.166 1.166 0 1 1 2.331 0v1.888ZM22.008 67.483a1.165 1.165 0 1 1-2.331 0v-1.888a1.166 1.166 0 1 1 2.331 0v1.888ZM61.65 44.832a1.166 1.166 0 1 1-2.332 0v-1.888a1.166 1.166 0 1 1 2.332 0v1.888ZM61.65 54.27a1.166 1.166 0 1 1-2.332 0v-1.888a1.166 1.166 0 1 1 2.332 0v1.888ZM61.65 63.708a1.166 1.166 0 1 1-2.332 0V61.82a1.166 1.166 0 1 1 2.332 0v1.888ZM61.65 73.146a1.166 1.166 0 1 1-2.332 0v-1.888a1.166 1.166 0 1 1 2.332 0v1.888Z" fill="#05C2DF" stroke="#05040B" stroke-width=".5" stroke-linecap="round"/><path d="M34.326 20H23" stroke="#05C2DF" stroke-linecap="round"/></svg>